<svg width="20" height="37" viewBox="0 0 20 37" fill="none" xmlns="http://www.w3.org/2000/svg">
<g clip-path="url(#clip0_38_2)">
<path d="M10.6431 31.3774L19.7337 22.4111C20.0888 22.061 20.0888 21.4932 19.7337 21.143C19.3786 20.7929 18.8031 20.7929 18.448 21.1431L10.0002 29.4754L1.55186 21.143C1.19683 20.7929 0.62125 20.7929 0.26622 21.1431C0.088705 21.3181 -2.29173e-05 21.5476 -2.29274e-05 21.7771C-2.29374e-05 22.0066 0.088705 22.236 0.266281 22.4111L9.35743 31.3774C9.52792 31.5456 9.75913 31.6401 10.0002 31.6401C10.2413 31.6401 10.4726 31.5456 10.6431 31.3774Z" fill="#00488B"/>
</g>
<line x1="10" y1="1" x2="10" y2="29" stroke="#00488B" stroke-width="2" stroke-linecap="round"/>
<defs>
<clipPath id="clip0_38_2">
<rect width="19.726" height="20" fill="white" transform="translate(20 16.3972) rotate(90)"/>
</clipPath>
</defs>
</svg>
