<svg width="62" height="64" viewBox="0 0 62 64" fill="none" xmlns="http://www.w3.org/2000/svg">
<path d="M4.31128 0V46.6225L20.9404 63.5761H57.6888V0H4.31128Z" fill="white"/>
<path d="M57.6888 63.5761V0H4.31128" fill="#E9EBF4"/>
<path d="M57.6888 29.6689V0H4.31128" fill="#D4DEE8"/>
<path d="M37.159 63.6821L20.7351 46.6225V63.5761H37.159V63.6821Z" fill="#D6E0E5"/>
<path d="M4.31128 46.6225L20.7351 64V46.6225H4.31128Z" fill="#8AACC4"/>
<path d="M10.5729 53.298L20.7351 64V46.6225L12.2153 54.7814L10.5729 53.298Z" fill="#6771A5"/>
<path d="M49.3741 44.6093L38.9039 45.4569L28.5364 44.6093L38.9039 23.4172L49.3741 44.6093Z" fill="#1589AD"/>
<path d="M38.9039 23.4172L49.3741 44.6093L38.9039 45.4569" fill="#035670"/>
<path d="M38.904 41.6424L44.8576 35.4967L41.5728 28.7152L38.904 25.9603L36.3377 28.7152L32.9503 35.4967L38.904 41.6424Z" fill="#1E6AC4"/>
<path d="M38.9039 41.6424L44.8576 35.4967L41.5728 28.7152L38.9039 25.9603" fill="#066B93"/>
<path d="M43.4206 44.0795L28.0232 45.457L12.6259 44.0795L28.0232 12.9272L43.4206 44.0795Z" fill="#1589AD"/>
<path d="M28.0232 12.9272L43.4205 44.0795L28.0232 45.457" fill="#057091"/>
<path d="M28.0231 39.8411L36.7483 30.8344L31.8211 20.7682L28.0231 16.7417L24.2251 20.7682L19.1953 30.8344L28.0231 39.8411Z" fill="#1E6AC4"/>
<path d="M28.0232 39.8411L36.7484 30.8344L31.8212 20.7682L28.0232 16.7417" fill="#1290AD"/>
<path d="M30.4867 28.3974L33.053 31.0464L35.6192 28.3974L28.0232 12.9272L20.4271 28.3974L22.9933 31.0464L25.5596 28.3974L28.0232 31.0464L30.4867 28.3974Z" fill="#9ADFEF"/>
<path d="M28.0232 31.0464L30.4868 28.3974L33.053 31.0464L35.6192 28.3974L28.0232 12.9272" fill="#7DD4E2"/>
<path d="M49.4768 43.4437H12.5232V45.5629H49.4768V43.4437Z" fill="#057091"/>
<path d="M44.8576 22.9934C47.5221 22.9934 49.6821 20.7637 49.6821 18.0132C49.6821 15.2628 47.5221 13.0331 44.8576 13.0331C42.1931 13.0331 40.0331 15.2628 40.0331 18.0132C40.0331 20.7637 42.1931 22.9934 44.8576 22.9934Z" fill="#F98D2B"/>
<path d="M48.3477 14.4106C50.1954 16.3179 50.1954 19.4967 48.3477 21.5099C46.5 23.5232 43.4205 23.4172 41.4702 21.5099" fill="#DD6E12"/>
</svg>
