<?xml version="1.0" standalone="no"?>
<!DOCTYPE svg PUBLIC "-//W3C//DTD SVG 20010904//EN"
 "http://www.w3.org/TR/2001/REC-SVG-20010904/DTD/svg10.dtd">
<svg version="1.0" xmlns="http://www.w3.org/2000/svg"
 width="70.000000pt" height="70.000000pt" viewBox="0 0 70.000000 70.000000"
 preserveAspectRatio="xMidYMid meet">
<metadata>
Created by potrace 1.14, written by Peter Selinger 2001-2017
</metadata>
<g transform="translate(0.000000,70.000000) scale(0.100000,-0.100000)"
fill="#000000" stroke="none">
<path d="M531 635 c-28 -13 -71 -38 -96 -55 -58 -40 -155 -138 -155 -156 0 -8
-25 -44 -55 -81 -74 -93 -145 -213 -151 -256 -4 -35 8 -57 21 -37 3 5 18 7 33
4 23 -5 38 4 92 52 36 31 73 67 83 78 54 62 100 106 112 106 12 0 100 111 124
158 7 13 15 22 17 19 7 -7 -44 -111 -65 -133 -37 -40 -53 -72 -40 -80 30 -18
126 131 149 229 15 65 13 164 -4 170 -7 3 -37 -5 -65 -18z m19 -85 c-21 -52
-108 -188 -136 -211 -12 -10 -20 -8 -42 8 -15 11 -34 32 -42 46 -14 26 -13 28
30 73 62 63 194 152 208 139 1 -1 -7 -26 -18 -55z m-198 -257 c-19 -33 -196
-203 -212 -203 -4 0 -11 7 -14 16 -7 17 26 74 98 173 71 99 66 95 102 58 18
-17 29 -37 26 -44z"/>
</g>
</svg>
