<svg width="14" height="8" viewBox="0 0 14 8" fill="none" xmlns="http://www.w3.org/2000/svg">
<g clip-path="url(#clip0_14_157)">
<path d="M12.1054 3.73546L8.52584 0.106298C8.38607 -0.0354367 8.15941 -0.0354367 8.01962 0.106322C7.87985 0.248057 7.87985 0.477838 8.01964 0.619572L11.3461 3.99212L8.01962 7.36485C7.87985 7.50658 7.87985 7.73636 8.01964 7.8781C8.08952 7.94896 8.18113 7.98438 8.27274 7.98438C8.36435 7.98438 8.45597 7.94896 8.52586 7.87807L12.1054 4.24871C12.1725 4.18065 12.2102 4.08835 12.2102 3.9921C12.2102 3.89585 12.1725 3.80352 12.1054 3.73546Z" fill="#00488B"/>
</g>
<line x1="0.35" y1="4.13437" x2="11.4625" y2="4.13437" stroke="#00488B" stroke-width="0.7" stroke-linecap="round"/>
<defs>
<clipPath id="clip0_14_157">
<rect width="7.875" height="7.98437" fill="white" transform="translate(6.125)"/>
</clipPath>
</defs>
</svg>
