<svg width="20" height="20" viewBox="0 0 20 20" fill="none" xmlns="http://www.w3.org/2000/svg">
<path d="M10.7578 19.5586C5.48438 19.5586 1.19922 15.2695 1.19922 10C1.19922 4.73047 5.48828 0.441406 10.7578 0.441406C11.0781 0.441406 11.3984 0.457031 11.7188 0.488281C12 0.515625 12.2461 0.691406 12.3633 0.945312C12.4805 1.19922 12.457 1.5 12.3008 1.73438C11.4023 3.05469 10.9258 4.59766 10.9258 6.19531C10.9258 10.2969 14 13.7031 18.082 14.1094C18.3633 14.1367 18.6094 14.3125 18.7266 14.5664C18.8477 14.8203 18.8203 15.1211 18.6641 15.3555C16.875 17.9883 13.9219 19.5586 10.7578 19.5586ZM10.2695 2.05859C6.10938 2.3125 2.80078 5.77734 2.80078 10C2.80078 14.3867 6.37109 17.957 10.7578 17.957C12.9609 17.957 15.0391 17.043 16.5312 15.4687C14.7266 15.0117 13.0898 14.0312 11.8125 12.6328C10.207 10.8672 9.32031 8.58594 9.32031 6.20312C9.32422 4.75391 9.64844 3.34375 10.2695 2.05859Z" fill="white"/>
</svg>
