<svg width="20" height="20" viewBox="0 0 20 20" fill="none" xmlns="http://www.w3.org/2000/svg">
<g clip-path="url(#clip0_14_159)">
<path d="M10.0001 3.6676C6.5084 3.6676 3.6676 6.50831 3.6676 9.99999C3.6676 13.4917 6.50831 16.3324 10.0001 16.3324C13.4919 16.3324 16.3326 13.4917 16.3326 9.99999C16.3326 6.50831 13.4919 3.6676 10.0001 3.6676ZM10.0001 14.8967C7.30008 14.8967 5.10337 12.7001 5.10337 10.0001C5.10337 7.30008 7.29999 5.10346 10.0001 5.10346C12.7002 5.10346 14.8968 7.30008 14.8968 10.0001C14.8968 12.7001 12.7002 14.8967 10.0001 14.8967Z" fill="#323334"/>
<path d="M9.94787 3.08478C9.9495 3.08478 9.95122 3.08478 9.95285 3.08478C10.3493 3.0821 10.6685 2.75848 10.6659 2.36202L10.6547 0.713094C10.6519 0.316536 10.329 -0.00631916 9.93189 9.39168e-05C9.53543 0.00277401 9.21621 0.326395 9.21889 0.722858L9.23009 2.37178C9.23277 2.76652 9.55371 3.08478 9.94787 3.08478Z" fill="#323334"/>
<path d="M15.3607 5.28361C15.5461 5.28361 15.7314 5.2123 15.8718 5.06997L17.0298 3.89609C17.3082 3.61382 17.3051 3.15925 17.0229 2.88091C16.7405 2.60227 16.2861 2.60543 16.0077 2.8877L14.8496 4.06158C14.5712 4.34386 14.5743 4.79842 14.8565 5.07677C14.9964 5.21479 15.1785 5.28361 15.3607 5.28361Z" fill="#323334"/>
<path d="M19.2822 9.21884C19.2806 9.21884 19.2789 9.21884 19.2772 9.21884L17.6283 9.23004C17.2318 9.23272 16.9126 9.55634 16.9153 9.9528C16.918 10.3476 17.2388 10.6658 17.6331 10.6658C17.6347 10.6658 17.6364 10.6658 17.6381 10.6658L19.287 10.6546C19.6835 10.6519 20.0027 10.3283 20 9.93184C19.9972 9.5371 19.6764 9.21884 19.2822 9.21884Z" fill="#323334"/>
<path d="M15.9384 14.8497C15.6561 14.5711 15.2016 14.5742 14.9232 14.8565C14.6448 15.1388 14.6479 15.5933 14.9301 15.8717L16.104 17.0298C16.2438 17.1678 16.426 17.2366 16.6081 17.2366C16.7936 17.2366 16.9789 17.1653 17.1193 17.023C17.3977 16.7407 17.3946 16.2862 17.1124 16.0078L15.9384 14.8497Z" fill="#323334"/>
<path d="M10.0472 16.9154C9.65078 16.9181 9.33157 17.2417 9.33425 17.6382L9.34544 19.2871C9.34812 19.6819 9.66897 20.0001 10.0632 20.0001C10.0649 20.0001 10.0666 20.0001 10.0682 20.0001C10.4647 19.9974 10.7839 19.6738 10.7812 19.2773L10.77 17.6284C10.7673 17.2319 10.4422 16.9141 10.0472 16.9154Z" fill="#323334"/>
<path d="M4.12834 14.9301L2.97035 16.104C2.69191 16.3863 2.69507 16.8408 2.97724 17.1192C3.11709 17.2572 3.29924 17.326 3.48139 17.326C3.66679 17.326 3.8521 17.2547 3.99252 17.1124L5.15051 15.9385C5.42895 15.6562 5.4258 15.2017 5.14362 14.9233C4.86125 14.6447 4.40669 14.6479 4.12834 14.9301Z" fill="#323334"/>
<path d="M3.08473 10.0473C3.08205 9.65246 2.76121 9.33429 2.36695 9.33429C2.36532 9.33429 2.3636 9.33429 2.36197 9.33429L0.713139 9.34549C0.316677 9.34817 -0.00254127 9.67179 0.000138824 10.0683C0.00281892 10.4631 0.323664 10.7813 0.717925 10.7813C0.719552 10.7813 0.721275 10.7813 0.722902 10.7813L2.37183 10.7701C2.7682 10.7673 3.08741 10.4437 3.08473 10.0473Z" fill="#323334"/>
<path d="M4.06165 5.15045C4.20149 5.28848 4.38364 5.3573 4.56579 5.3573C4.7512 5.3573 4.93651 5.28599 5.07692 5.14366C5.35537 4.86139 5.35221 4.40682 5.07003 4.12848L3.89606 2.97029C3.61378 2.69157 3.15922 2.69492 2.88088 2.97709C2.60243 3.25936 2.60559 3.71392 2.88777 3.99227L4.06165 5.15045Z" fill="#323334"/>
</g>
<defs>
<clipPath id="clip0_14_159">
<rect width="20" height="20" fill="white"/>
</clipPath>
</defs>
</svg>
