<svg width="25" height="28" viewBox="0 0 25 28" fill="none" xmlns="http://www.w3.org/2000/svg">
<path d="M17.4928 15.383C17.5178 15.349 17.5419 15.316 17.5669 15.282C17.5736 15.273 17.5813 15.263 17.588 15.254C17.5563 15.297 17.5246 15.34 17.4928 15.383ZM24.9159 1.008C24.9121 1.73 24.8986 2.451 24.8909 3.175C24.8851 3.887 24.8794 4.594 24.8275 5.304C24.7736 6.062 24.6419 6.818 24.5064 7.564C24.3843 8.235 24.2286 8.901 23.996 9.542C23.6922 10.382 23.325 11.198 22.9703 12.017C22.6396 12.773 22.2801 13.507 21.859 14.212C21.3995 14.982 20.8545 15.706 20.2767 16.383C20.022 16.685 19.7547 16.974 19.4981 17.272C19.226 17.588 18.9588 17.909 18.6848 18.223C18.3772 18.573 17.811 18.547 17.5005 18.223C17.1852 17.895 17.1679 17.314 17.5005 16.989C17.9446 16.557 18.3465 16.074 18.7704 15.616C19.1539 15.198 19.5202 14.768 19.8643 14.315C20.3815 13.601 20.8429 12.85 21.238 12.056C21.4466 11.634 21.636 11.202 21.8311 10.771C21.9897 10.42 22.1522 10.072 22.3031 9.718C22.5281 9.128 22.7338 8.532 22.8751 7.913C22.9135 7.746 22.9405 7.575 22.9722 7.406C22.3493 8.627 21.5822 9.764 20.8199 10.896C20.3248 11.632 19.8018 12.345 19.276 13.055C18.731 13.791 18.1532 14.498 17.6082 15.232C17.6274 15.205 17.6476 15.178 17.6678 15.151C17.6341 15.195 17.6015 15.24 17.5688 15.284C17.2487 15.712 16.9209 16.131 16.5921 16.553C16.4566 16.726 16.1961 16.812 15.9913 16.812C15.9605 16.812 15.9327 16.797 15.9029 16.794C15.8365 16.839 15.7683 16.882 15.6914 16.904C15.4914 16.961 15.3261 16.923 15.1473 16.85C15.1502 16.851 15.1531 16.852 15.1559 16.854C15.13 16.843 15.1031 16.833 15.0771 16.823C14.5522 17.488 14.0043 18.125 13.4362 18.752C12.8758 19.371 12.3326 20.004 11.7684 20.62C11.1983 21.241 10.5975 21.83 9.99478 22.419C9.39012 23.008 8.78163 23.593 8.15487 24.156C7.55406 24.697 6.94749 25.225 6.36495 25.784C6.05541 26.084 5.75068 26.391 5.43154 26.679C5.07201 26.999 4.68173 27.278 4.2876 27.547C4.05593 27.707 3.76851 27.683 3.52914 27.558C3.26191 27.719 2.90046 27.762 2.64572 27.571C2.42655 27.405 2.21314 27.229 1.99877 27.055C1.87092 27.231 1.74211 27.407 1.61426 27.583C1.47871 27.768 1.3499 27.909 1.12496 27.973C0.914437 28.03 0.683727 28 0.494353 27.885C0.136754 27.666 -0.0564652 27.099 0.202122 26.721C0.356889 26.496 0.515502 26.273 0.673153 26.052C0.698147 26.017 0.726985 25.992 0.75294 25.96C0.732753 25.94 0.710644 25.923 0.689495 25.903C0.37227 25.591 0.360734 25.081 0.58856 24.714C0.599134 24.688 0.600095 24.66 0.612592 24.635C0.84234 24.183 1.09804 23.744 1.34317 23.3C1.55369 22.916 1.77383 22.536 1.99204 22.154C2.42847 21.392 2.89662 20.648 3.36957 19.909C3.83676 19.181 4.31067 18.456 4.81535 17.754C5.35271 17.002 5.90353 16.26 6.45819 15.521C6.99748 14.803 7.52715 14.076 8.0895 13.376C8.64513 12.684 9.21229 12.003 9.79483 11.334C9.69678 11.106 9.64391 10.9 9.70927 10.65C9.74196 10.529 9.80252 10.419 9.87846 10.323C9.88903 10.194 9.92172 10.068 9.98805 9.971C10.3226 9.494 10.709 9.078 11.1031 8.656C11.4338 8.3 11.7597 7.94 12.0923 7.586C12.7921 6.842 13.5246 6.153 14.3052 5.502C15.0089 4.915 15.7135 4.322 16.4556 3.787C17.1843 3.262 17.9283 2.772 18.6916 2.308C19.053 2.087 19.4125 1.866 19.7855 1.669C20.1816 1.458 20.5853 1.265 20.9948 1.082C21.8609 0.694 22.7261 0.316 23.6307 0.0350001C23.7076 0.0110001 23.7835 0 23.8585 0C24.0623 0 24.2545 0.0849999 24.4083 0.221C24.7035 0.351 24.9159 0.657 24.9159 1.008ZM13.5746 16.088C13.5189 16.053 13.4593 16.024 13.4045 15.987C12.844 15.607 12.3317 15.155 11.8587 14.662C11.43 14.218 11.007 13.731 10.6744 13.203C10.635 13.139 10.6071 13.068 10.5706 13.002C10.0371 13.607 9.50163 14.21 8.99215 14.835C8.38846 15.575 7.82034 16.348 7.24933 17.113C6.28708 18.431 5.36521 19.777 4.47986 21.153C4.03767 21.842 3.61374 22.544 3.19846 23.252C2.99178 23.604 2.79472 23.962 2.59958 24.319C2.50153 24.5 2.40732 24.682 2.30831 24.862C2.50537 25.055 2.70051 25.249 2.90238 25.436C3.12252 25.638 3.35323 25.825 3.57529 26.023C3.74832 25.91 3.91943 25.795 4.08669 25.669C4.56253 25.273 5.00184 24.836 5.44884 24.409C5.92468 23.953 6.41493 23.516 6.90615 23.08C7.52042 22.533 8.13276 21.984 8.73453 21.422C9.34302 20.849 9.96113 20.278 10.5273 19.657C11.1089 19.02 11.6751 18.365 12.2413 17.711C12.5355 17.371 12.8287 17.027 13.1151 16.68C13.2728 16.488 13.4227 16.286 13.5746 16.088ZM22.6271 3.79C22.8251 3.226 23.0097 2.66 23.1231 2.073C22.6501 2.242 22.181 2.421 21.7158 2.618C21.2822 2.809 20.8439 3 20.4305 3.234C19.9845 3.491 19.5394 3.751 19.1068 4.028C18.259 4.57 17.439 5.153 16.6431 5.775C15.701 6.54 14.7637 7.321 13.9178 8.201C13.4833 8.655 13.0594 9.12 12.6364 9.584C12.2432 10.016 11.8299 10.43 11.4617 10.884C11.5425 11.083 11.6251 11.281 11.7059 11.48C11.7905 11.681 11.876 11.884 11.9798 12.074C12.075 12.252 12.1836 12.42 12.299 12.583C12.7383 13.141 13.2439 13.658 13.7851 14.11C14.2542 14.481 14.7339 14.866 15.2732 15.115C15.3376 15.143 15.4001 15.173 15.4645 15.202C15.8336 14.749 16.1951 14.291 16.5488 13.824C16.8959 13.37 17.2544 12.924 17.5986 12.47C17.9014 12.062 18.2061 11.654 18.5118 11.249C19.1741 10.357 19.7961 9.425 20.3892 8.482C20.9746 7.553 21.5226 6.581 21.9465 5.559C22.1762 4.971 22.4166 4.385 22.6271 3.79Z" fill="#1F4A6C"/>
</svg>
